0
SECTION
2
HEADER
9
$INSUNITS
70
4
9
$ACADVER
1
AC1014
9
$HANDSEED
5
FFFF
0
ENDSEC
0
SECTION
2
TABLES
0
TABLE
2
VPORT
5
8
100
AcDbSymbolTable
0
ENDTAB
0
TABLE
2
LTYPE
5
5
100
AcDbSymbolTable
0
LTYPE
5
14
100
AcDbSymbolTableRecord
100
AcDbLinetypeTableRecord
2
BYBLOCK
70
0
0
LTYPE
5
15
100
AcDbSymbolTableRecord
100
AcDbLinetypeTableRecord
2
BYLAYER
70
0
0
ENDTAB
0
TABLE
2
LAYER
5
2
100
AcDbSymbolTable
70
2
0
LAYER
5
50
100
AcDbSymbolTableRecord
100
AcDbLayerTableRecord
2
0
70
0
6
CONTINUOUS
0
ENDTAB
0
TABLE
2
STYLE
5
3
100
AcDbSymbolTable
70
1
0
STYLE
5
11
100
AcDbSymbolTableRecord
100
AcDbTextStyleTableRecord
2
STANDARD
70
0
0
ENDTAB
0
TABLE
2
VIEW
5
6
100
AcDbSymbolTable
70
0
0
ENDTAB
0
TABLE
2
UCS
5
7
100
AcDbSymbolTable
70
0
0
ENDTAB
0
TABLE
2
APPID
5
9
100
AcDbSymbolTable
70
2
0
APPID
5
12
100
AcDbSymbolTableRecord
100
AcDbRegAppTableRecord
2
ACAD
70
0
0
ENDTAB
0
TABLE
2
DIMSTYLE
5
A
100
AcDbSymbolTable
70
1
0
ENDTAB
0
TABLE
2
BLOCK_RECORD
5
1
100
AcDbSymbolTable
70
1
0
BLOCK_RECORD
5
1F
100
AcDbSymbolTableRecord
100
AcDbBlockTableRecord
2
*MODEL_SPACE
0
BLOCK_RECORD
5
1B
100
AcDbSymbolTableRecord
100
AcDbBlockTableRecord
2
*PAPER_SPACE
0
ENDTAB
0
ENDSEC
0
SECTION
2
BLOCKS
0
BLOCK
5
20
100
AcDbEntity
100
AcDbBlockBegin
2
*MODEL_SPACE
0
ENDBLK
5
21
100
AcDbEntity
100
AcDbBlockEnd
0
BLOCK
5
1C
100
AcDbEntity
100
AcDbBlockBegin
2
*PAPER_SPACE
0
ENDBLK
5
1D
100
AcDbEntity
100
AcDbBlockEnd
0
ENDSEC
0
SECTION
2
ENTITIES
0
LINE
5
100
100
AcDbEntity
8
0
100
AcDbLine
10
96.224999999999952
20
38.099999999999909
30
0
11
102.52499999999998
21
38.099999999999909
31
0
0
ARC
5
101
100
AcDbEntity
8
0
100
AcDbCircle
10
96.224999999999952
20
37.599999999999866
30
0
40
0.50000000000004263
210
0
220
-0
230
1
100
AcDbArc
50
90
51
180
0
LINE
5
102
100
AcDbEntity
8
0
100
AcDbLine
10
95.72499999999998
20
37.599999999999866
30
0
11
95.724999999999909
21
37.349999999999881
31
0
0
ARC
5
103
100
AcDbEntity
8
0
100
AcDbCircle
10
95.224999999999937
20
37.349999999999881
30
0
40
0.49999999999997158
210
0
220
0
230
1
100
AcDbArc
50
-90
51
0
0
LINE
5
104
100
AcDbEntity
8
0
100
AcDbLine
10
95.224999999999937
20
36.849999999999909
30
0
11
93.224999999999909
21
36.849999999999909
31
0
0
ARC
5
105
100
AcDbEntity
8
0
100
AcDbCircle
10
93.224999999999909
20
37.349999999999881
30
0
40
0.49999999999997158
210
0
220
0
230
1
100
AcDbArc
50
180
51
270
0
ARC
5
106
100
AcDbEntity
8
0
100
AcDbCircle
10
92.224999999999966
20
37.349999999999881
30
0
40
0.49999999999997158
210
0
220
0
230
1
100
AcDbArc
50
0
51
90
0
LINE
5
107
100
AcDbEntity
8
0
100
AcDbLine
10
79.224999999999923
20
37.849999999999888
30
0
11
92.224999999999966
21
37.849999999999888
31
0
0
ARC
5
108
100
AcDbEntity
8
0
100
AcDbCircle
10
79.224999999999923
20
37.349999999999881
30
0
40
0.50000000000000711
210
0
220
-0
230
1
100
AcDbArc
50
90
51
180
0
ARC
5
109
100
AcDbEntity
8
0
100
AcDbCircle
10
78.224999999999909
20
37.349999999999881
30
0
40
0.50000000000000711
210
0
220
0
230
1
100
AcDbArc
50
-90
51
0
0
LINE
5
110
100
AcDbEntity
8
0
100
AcDbLine
10
76.224999999999952
20
36.849999999999874
30
0
11
78.224999999999909
21
36.849999999999874
31
0
0
ARC
5
111
100
AcDbEntity
8
0
100
AcDbCircle
10
76.224999999999952
20
37.349999999999881
30
0
40
0.50000000000004263
210
0
220
0
230
1
100
AcDbArc
50
180
51
270
0
LINE
5
112
100
AcDbEntity
8
0
100
AcDbLine
10
75.724999999999909
20
37.599999999999866
30
0
11
75.724999999999909
21
37.349999999999881
31
0
0
ARC
5
113
100
AcDbEntity
8
0
100
AcDbCircle
10
75.224999999999937
20
37.599999999999866
30
0
40
0.49999999999997158
210
0
220
0
230
1
100
AcDbArc
50
0
51
90
0
ARC
5
114
100
AcDbEntity
8
0
100
AcDbCircle
10
-75.225000000000009
20
37.599999999999881
30
0
40
0.50000000000004263
210
0
220
-0
230
1
100
AcDbArc
50
90
51
180
0
LINE
5
115
100
AcDbEntity
8
0
100
AcDbLine
10
-75.725000000000023
20
37.599999999999881
30
0
11
-75.72499999999998
21
37.349999999999895
31
0
0
ARC
5
116
100
AcDbEntity
8
0
100
AcDbCircle
10
-76.225000000000023
20
37.349999999999895
30
0
40
0.49999999999997158
210
0
220
0
230
1
100
AcDbArc
50
-90
51
0
0
LINE
5
117
100
AcDbEntity
8
0
100
AcDbLine
10
-76.225000000000023
20
36.849999999999923
30
0
11
-78.22499999999998
21
36.849999999999923
31
0
0
ARC
5
118
100
AcDbEntity
8
0
100
AcDbCircle
10
-78.22499999999998
20
37.349999999999895
30
0
40
0.50000000000004263
210
0
220
0
230
1
100
AcDbArc
50
180
51
270
0
ARC
5
119
100
AcDbEntity
8
0
100
AcDbCircle
10
-79.224999999999994
20
37.349999999999895
30
0
40
0.49999999999997158
210
0
220
0
230
1
100
AcDbArc
50
0
51
90
0
LINE
5
120
100
AcDbEntity
8
0
100
AcDbLine
10
-79.224999999999994
20
37.849999999999902
30
0
11
-92.224999999999994
21
37.849999999999902
31
0
0
ARC
5
121
100
AcDbEntity
8
0
100
AcDbCircle
10
-92.224999999999994
20
37.349999999999895
30
0
40
0.50000000000000711
210
0
220
-0
230
1
100
AcDbArc
50
90
51
180
0
ARC
5
122
100
AcDbEntity
8
0
100
AcDbCircle
10
-93.22499999999998
20
37.349999999999895
30
0
40
0.49999999999997158
210
0
220
0
230
1
100
AcDbArc
50
-90
51
0
0
LINE
5
123
100
AcDbEntity
8
0
100
AcDbLine
10
-95.225000000000009
20
36.849999999999923
30
0
11
-93.22499999999998
21
36.849999999999923
31
0
0
ARC
5
124
100
AcDbEntity
8
0
100
AcDbCircle
10
-95.225000000000009
20
37.349999999999895
30
0
40
0.50000000000000711
210
0
220
0
230
1
100
AcDbArc
50
180
51
270
0
LINE
5
125
100
AcDbEntity
8
0
100
AcDbLine
10
-95.72499999999998
20
37.599999999999881
30
0
11
-95.725000000000023
21
37.349999999999895
31
0
0
ARC
5
126
100
AcDbEntity
8
0
100
AcDbCircle
10
-96.224999999999994
20
37.599999999999881
30
0
40
0.50000000000000711
210
0
220
0
230
1
100
AcDbArc
50
0
51
90
0
LINE
5
127
100
AcDbEntity
8
0
100
AcDbLine
10
-102.52499999999998
20
38.099999999999923
30
0
11
-96.224999999999994
21
38.099999999999923
31
0
0
LWPOLYLINE
5
128
100
AcDbEntity
8
0
100
AcDbPolyline
90
8
70
1
43
0.0
10
98.237499999999969
20
-22.675000000000093
10
98.237500000000011
20
-34.475000000000094
42
-0.41421356237309509
10
97.737499999999997
20
-34.975000000000101
10
83.237499999999969
20
-34.975000000000065
42
-0.41421356237309509
10
82.737499999999997
20
-34.475000000000094
10
82.737499999999955
20
-22.675000000000093
42
-0.41421356237309509
10
83.237499999999969
20
-22.175000000000097
10
97.737499999999997
20
-22.175000000000122
42
-0.41421356237309509
0
LINE
5
129
100
AcDbEntity
8
0
100
AcDbLine
10
-102.52499999999998
20
-38.100000000000101
30
0
11
102.52499999999998
21
-38.100000000000101
31
0
0
LINE
5
130
100
AcDbEntity
8
0
100
AcDbLine
10
104.77499999999999
20
-35.850000000000101
30
0
11
104.77499999999992
21
35.849999999999916
31
0
0
LWPOLYLINE
5
131
100
AcDbEntity
8
0
100
AcDbPolyline
90
8
70
1
43
0.0
10
69.16249999999998
20
-34.975000000000087
42
0.41421356237309509
10
69.662499999999952
20
-34.475000000000094
10
69.662499999999952
20
-22.675000000000093
42
0.41421356237309509
10
69.16249999999998
20
-22.175000000000097
10
54.662500000000023
20
-22.175000000000097
42
0.41421356237309509
10
54.162500000000051
20
-22.675000000000093
10
54.162500000000051
20
-34.475000000000094
42
0.41421356237309509
10
54.662500000000023
20
-34.975000000000087
0
LINE
5
132
100
AcDbEntity
8
0
100
AcDbLine
10
-104.77499999999999
20
-35.850000000000101
30
0
11
-104.77499999999999
21
35.849999999999923
31
0
0
LWPOLYLINE
5
133
100
AcDbEntity
8
0
100
AcDbPolyline
90
8
70
1
43
0.0
10
-99.271250000000009
20
-18.610000000000092
42
0.41421356237309509
10
-98.771249999999995
20
-18.110000000000092
10
-98.771249999999995
20
-13.900000000000091
42
0.41421356237307427
10
-99.271249999999966
20
-13.400000000000091
10
-100.94124999999998
20
-13.400000000000091
42
0.41421356237309509
10
-101.44125
20
-13.900000000000091
10
-101.44125
20
-18.110000000000092
42
0.41421356237309509
10
-100.94124999999998
20
-18.610000000000092
0
LWPOLYLINE
5
134
100
AcDbEntity
8
0
100
AcDbPolyline
90
8
70
1
43
0.0
10
22.037499999999994
20
-3.6250000000000915
10
22.037500000000023
20
-15.42500000000009
42
-0.41421356237309509
10
21.537500000000023
20
-15.925000000000086
10
7.0374999999999943
20
-15.925000000000061
42
-0.41421356237309509
10
6.5375000000000227
20
-15.42500000000009
10
6.5374999999999961
20
-3.6250000000000915
42
-0.41421356237309509
10
7.0374999999999943
20
-3.1250000000000933
10
21.537500000000023
20
-3.1250000000001199
42
-0.41421356237309509
0
LWPOLYLINE
5
135
100
AcDbEntity
8
0
100
AcDbPolyline
90
8
70
1
43
0.0
10
-45.350000000000001
20
34.974999999999909
42
0.41421356237309509
10
-45.850000000000009
20
34.474999999999909
10
-45.850000000000009
20
22.674999999999912
42
0.41421356237309509
10
-45.350000000000001
20
22.174999999999908
10
-30.850000000000009
20
22.174999999999908
42
0.41421356237309509
10
-30.350000000000001
20
22.674999999999912
10
-30.350000000000001
20
34.474999999999909
42
0.41421356237309509
10
-30.850000000000009
20
34.974999999999909
0
LWPOLYLINE
5
136
100
AcDbEntity
8
0
100
AcDbPolyline
90
8
70
1
43
0.0
10
16.5625
20
15.924999999999908
42
0.41421356237309509
10
16.062499999999993
20
15.424999999999912
10
16.062500000000028
20
3.6249999999999094
42
0.41421356237309509
10
16.5625
20
3.1249999999999067
10
31.062500000000028
20
3.1249999999999067
42
0.41421356237309509
10
31.5625
20
3.6249999999999094
10
31.5625
20
15.424999999999912
42
0.41421356237309509
10
31.062500000000028
20
15.924999999999908
0
LWPOLYLINE
5
137
100
AcDbEntity
8
0
100
AcDbPolyline
90
8
70
1
43
0.0
10
101.44124999999995
20
5.149999999999908
42
0.41421356237309509
10
100.94124999999998
20
5.6499999999999062
10
99.271249999999966
20
5.6499999999999062
42
0.41421356237309509
10
98.771249999999995
20
5.149999999999908
10
98.771249999999995
20
0.93999999999991424
42
0.41421356237309509
10
99.271249999999966
20
0.43999999999991601
10
100.94124999999998
20
0.43999999999991601
42
0.41421356237309509
10
101.44124999999995
20
0.93999999999991424
0
LWPOLYLINE
5
138
100
AcDbEntity
8
0
100
AcDbPolyline
90
8
70
1
43
0.0
10
-11.29999999999999
20
34.474999999999909
10
-11.299999999999994
20
22.674999999999912
42
-0.41421356237309509
10
-11.799999999999997
20
22.174999999999908
10
-26.29999999999999
20
22.174999999999905
42
-0.41421356237309509
10
-26.799999999999997
20
22.674999999999912
10
-26.799999999999994
20
34.474999999999909
42
-0.41421356237309509
10
-26.29999999999999
20
34.974999999999909
10
-11.799999999999997
20
34.974999999999916
42
-0.41421356237309509
0
LWPOLYLINE
5
139
100
AcDbEntity
8
0
100
AcDbPolyline
90
8
70
1
43
0.0
10
-100.11875000000001
20
-34.975000000000101
10
-85.618750000000006
20
-34.975000000000101
42
0.41421356237309509
10
-85.118750000000006
20
-34.475000000000094
10
-85.118750000000006
20
-22.675000000000093
42
0.41421356237309509
10
-85.618750000000006
20
-22.175000000000086
10
-100.11875000000001
20
-22.175000000000086
42
0.41421356237309509
10
-100.61875000000001
20
-22.675000000000093
10
-100.61875000000001
20
-34.475000000000094
42
0.41421356237309509
0
LWPOLYLINE
5
140
100
AcDbEntity
8
0
100
AcDbPolyline
90
8
70
1
43
0.0
10
83.950000000000031
20
34.474999999999909
10
83.950000000000074
20
22.674999999999912
42
-0.41421356237309509
10
83.45000000000006
20
22.174999999999908
10
68.950000000000031
20
22.17499999999994
42
-0.41421356237309509
10
68.45000000000006
20
22.674999999999912
10
68.450000000000017
20
34.474999999999909
42
-0.41421356237309509
10
68.950000000000031
20
34.974999999999909
10
83.45000000000006
20
34.974999999999881
42
-0.41421356237309509
0
LWPOLYLINE
5
141
100
AcDbEntity
8
0
100
AcDbPolyline
90
8
70
1
43
0.0
10
7.2500000000000142
20
22.174999999999908
42
0.41421356237309509
10
7.7500000000000213
20
22.674999999999912
10
7.7500000000000213
20
34.474999999999909
42
0.41421356237309509
10
7.2500000000000142
20
34.974999999999909
10
-7.2499999999999787
20
34.974999999999909
42
0.41421356237309509
10
-7.7499999999999858
20
34.474999999999909
10
-7.7499999999999858
20
22.674999999999912
42
0.41421356237309509
10
-7.2499999999999787
20
22.174999999999908
0
LWPOLYLINE
5
142
100
AcDbEntity
8
0
100
AcDbPolyline
90
8
70
1
43
0.0
10
-80.856250000000003
20
-15.925000000000086
42
0.41421356237309509
10
-80.356249999999989
20
-15.42500000000009
10
-80.356249999999989
20
-3.6250000000000915
42
0.41421356237309509
10
-80.856250000000003
20
-3.1250000000000933
10
-95.356249999999989
20
-3.1250000000000933
42
0.41421356237309509
10
-95.856250000000003
20
-3.6250000000000915
10
-95.856250000000003
20
-15.42500000000009
42
0.41421356237309509
10
-95.356249999999989
20
-15.925000000000086
0
LWPOLYLINE
5
143
100
AcDbEntity
8
0
100
AcDbPolyline
90
8
70
1
43
0.0
10
-59.637499999999974
20
15.924999999999908
10
-45.137499999999982
20
15.924999999999919
42
-0.41421356237309509
10
-44.637499999999974
20
15.424999999999912
10
-44.637499999999982
20
3.6249999999999094
42
-0.41421356237309509
10
-45.137499999999982
20
3.1249999999999112
10
-59.637499999999974
20
3.1249999999999023
42
-0.41421356237309509
10
-60.137499999999982
20
3.6249999999999094
10
-60.137499999999974
20
15.424999999999912
42
-0.41421356237309509
0
LWPOLYLINE
5
144
100
AcDbEntity
8
0
100
AcDbPolyline
90
8
70
1
43
0.0
10
77.441250000000039
20
5.149999999999908
10
77.441250000000068
20
0.93999999999991424
42
-0.41421356237309509
10
76.941250000000068
20
0.43999999999991601
10
75.271250000000052
20
0.4399999999998716
42
-0.41421356237309509
10
74.771250000000009
20
0.93999999999991424
10
74.771250000000052
20
5.149999999999908
42
-0.41421356237309509
10
75.271250000000052
20
5.6499999999999062
10
76.941250000000068
20
5.6499999999998796
42
-0.41421356237309509
0
LWPOLYLINE
5
145
100
AcDbEntity
8
0
100
AcDbPolyline
90
8
70
1
43
0.0
10
-64.399999999999977
20
34.974999999999909
10
-49.899999999999984
20
34.974999999999916
42
-0.41421356237309509
10
-49.399999999999977
20
34.474999999999909
10
-49.399999999999977
20
22.674999999999912
42
-0.41421356237309509
10
-49.899999999999984
20
22.174999999999908
10
-64.399999999999977
20
22.174999999999905
42
-0.41421356237309509
10
-64.899999999999977
20
22.674999999999912
10
-64.899999999999977
20
34.474999999999909
42
-0.41421356237309509
0
LWPOLYLINE
5
146
100
AcDbEntity
8
0
100
AcDbPolyline
90
8
70
1
43
0.0
10
54.162500000000051
20
3.6249999999999094
42
0.41421356237309509
10
54.662500000000023
20
3.1249999999999112
10
69.16249999999998
20
3.1249999999999067
42
0.41421356237309509
10
69.662500000000023
20
3.6249999999999094
10
69.662500000000023
20
15.424999999999912
42
0.41421356237309509
10
69.16249999999998
20
15.924999999999908
10
54.662500000000023
20
15.924999999999908
42
0.41421356237309509
10
54.16249999999998
20
15.424999999999912
0
LWPOLYLINE
5
147
100
AcDbEntity
8
0
100
AcDbPolyline
90
8
70
1
43
0.0
10
-103
20
34.474999999999909
10
-103
20
22.674999999999912
42
0.41421356237309509
10
-102.5
20
22.174999999999908
10
-88
20
22.174999999999908
42
0.41421356237309509
10
-87.5
20
22.674999999999912
10
-87.5
20
34.474999999999909
42
0.41421356237309509
10
-88
20
34.974999999999909
10
-102.5
20
34.974999999999909
42
0.41421356237309509
0
LWPOLYLINE
5
148
100
AcDbEntity
8
0
100
AcDbPolyline
90
8
70
1
43
0.0
10
-35.112500000000004
20
-3.6250000000000915
42
0.41421356237309509
10
-35.612500000000011
20
-3.1250000000000933
10
-50.112499999999969
20
-3.1250000000000933
42
0.41421356237309509
10
-50.612499999999976
20
-3.6250000000000915
10
-50.612499999999976
20
-15.42500000000009
42
0.41421356237309509
10
-50.112499999999969
20
-15.925000000000086
10
-35.612499999999976
20
-15.925000000000086
42
0.41421356237307427
10
-35.112500000000004
20
-15.42500000000009
0
LWPOLYLINE
5
149
100
AcDbEntity
8
0
100
AcDbPolyline
90
8
70
1
43
0.0
10
-59.42499999999999
20
-34.975000000000087
42
0.41421356237309509
10
-58.924999999999983
20
-34.475000000000094
10
-58.924999999999983
20
-22.675000000000093
42
0.41421356237309509
10
-59.42499999999999
20
-22.175000000000086
10
-73.924999999999983
20
-22.175000000000086
42
0.41421356237309509
10
-74.424999999999983
20
-22.675000000000093
10
-74.424999999999983
20
-34.475000000000094
42
0.41421356237309509
10
-73.924999999999983
20
-34.975000000000087
0
LWPOLYLINE
5
150
100
AcDbEntity
8
0
100
AcDbPolyline
90
8
70
1
43
0.0
10
95.856250000000003
20
15.424999999999912
42
0.41421356237309509
10
95.356250000000031
20
15.924999999999908
10
80.856250000000003
20
15.924999999999908
42
0.41421356237309509
10
80.356250000000031
20
15.424999999999912
10
80.356250000000031
20
3.6249999999999094
42
0.41421356237309509
10
80.856250000000003
20
3.1249999999999112
10
95.356250000000031
20
3.1249999999999067
42
0.41421356237309509
10
95.856250000000003
20
3.6249999999999094
0
LWPOLYLINE
5
151
100
AcDbEntity
8
0
100
AcDbPolyline
90
8
70
1
43
0.0
10
41.087500000000006
20
-3.6250000000000915
42
0.41421356237309509
10
40.587500000000034
20
-3.1250000000000933
10
26.087500000000006
20
-3.1250000000000933
42
0.41421356237309509
10
25.587500000000034
20
-3.6250000000000915
10
25.587500000000034
20
-15.42500000000009
42
0.41421356237309509
10
26.087500000000006
20
-15.925000000000086
10
40.587500000000034
20
-15.925000000000086
42
0.41421356237309509
10
41.087500000000006
20
-15.42500000000009
0
LWPOLYLINE
5
152
100
AcDbEntity
8
0
100
AcDbPolyline
90
8
70
1
43
0.0
10
11.799999999999997
20
34.974999999999909
42
0.41421356237309509
10
11.29999999999999
20
34.474999999999909
10
11.29999999999999
20
22.674999999999912
42
0.41421356237309509
10
11.799999999999997
20
22.174999999999908
10
26.300000000000026
20
22.174999999999908
42
0.41421356237309509
10
26.799999999999997
20
22.674999999999912
10
26.799999999999997
20
34.474999999999909
42
0.41421356237309509
10
26.300000000000026
20
34.974999999999909
0
LWPOLYLINE
5
153
100
AcDbEntity
8
0
100
AcDbPolyline
90
8
70
1
43
0.0
10
-76.941249999999997
20
-13.400000000000091
42
0.41421356237309509
10
-77.441249999999997
20
-13.900000000000091
10
-77.441249999999997
20
-18.110000000000092
42
0.41421356237309509
10
-76.941249999999997
20
-18.610000000000092
10
-75.271249999999981
20
-18.610000000000092
42
0.41421356237309509
10
-74.771249999999981
20
-18.110000000000092
10
-74.771250000000009
20
-13.900000000000091
42
0.41421356237309509
10
-75.271249999999981
20
-13.400000000000091
0
LWPOLYLINE
5
154
100
AcDbEntity
8
0
100
AcDbPolyline
90
8
70
1
43
0.0
10
5.3687500000000199
20
-22.675000000000093
10
5.3687500000000199
20
-34.475000000000094
42
-0.41421356237307427
10
4.8687500000000483
20
-34.975000000000101
10
-9.6312499999999801
20
-34.975000000000101
42
-0.41421356237309509
10
-10.131249999999987
20
-34.475000000000094
10
-10.131249999999978
20
-22.675000000000093
42
-0.41421356237309509
10
-9.6312499999999801
20
-22.175000000000097
10
4.8687500000000483
20
-22.175000000000086
42
-0.41421356237307427
0
LWPOLYLINE
5
155
100
AcDbEntity
8
0
100
AcDbPolyline
90
8
70
1
43
0.0
10
30.850000000000009
20
34.974999999999909
10
45.350000000000037
20
34.974999999999881
42
-0.41421356237309509
10
45.850000000000009
20
34.474999999999909
10
45.850000000000044
20
22.674999999999912
42
-0.41421356237309509
10
45.350000000000037
20
22.174999999999908
10
30.850000000000009
20
22.17499999999994
42
-0.41421356237309509
10
30.350000000000037
20
22.674999999999912
10
30.350000000000005
20
34.474999999999909
42
-0.41421356237309509
0
LWPOLYLINE
5
156
100
AcDbEntity
8
0
100
AcDbPolyline
90
8
70
1
43
0.0
10
-12.012499999999982
20
-3.1250000000000933
10
2.4875000000000114
20
-3.1250000000000844
42
-0.41421356237309509
10
2.9875000000000185
20
-3.6250000000000915
10
2.9875000000000096
20
-15.42500000000009
42
-0.41421356237309509
10
2.4875000000000114
20
-15.925000000000086
10
-12.012499999999982
20
-15.925000000000097
42
-0.41421356237309509
10
-12.512499999999989
20
-15.42500000000009
10
-12.51249999999998
20
-3.6250000000000915
42
-0.41421356237309509
0
LWPOLYLINE
5
157
100
AcDbEntity
8
0
100
AcDbPolyline
90
8
70
1
43
0.0
10
-31.062499999999993
20
-3.1250000000000933
10
-16.5625
20
-3.1250000000000488
42
-0.41421356237309509
10
-16.062499999999957
20
-3.6250000000000915
10
-16.0625
20
-15.42500000000009
42
-0.41421356237309509
10
-16.5625
20
-15.925000000000086
10
-31.062499999999993
20
-15.925000000000097
42
-0.41421356237309509
10
-31.5625
20
-15.42500000000009
10
-31.562499999999993
20
-3.6250000000000915
42
-0.41421356237309509
0
LWPOLYLINE
5
158
100
AcDbEntity
8
0
100
AcDbPolyline
90
8
70
1
43
0.0
10
60.137499999999946
20
-3.6250000000000915
42
0.41421356237309509
10
59.637499999999974
20
-3.1250000000000933
10
45.137500000000017
20
-3.1250000000000933
42
0.41421356237309509
10
44.637499999999974
20
-3.6250000000000915
10
44.637499999999974
20
-15.42500000000009
42
0.41421356237309509
10
45.137500000000017
20
-15.925000000000086
10
59.637499999999974
20
-15.925000000000086
42
0.41421356237309509
10
60.137500000000017
20
-15.42500000000009
0
LWPOLYLINE
5
159
100
AcDbEntity
8
0
100
AcDbPolyline
90
8
70
1
43
0.0
10
-54.16249999999998
20
-3.6250000000000915
10
-54.162499999999987
20
-15.42500000000009
42
-0.41421356237309509
10
-54.662499999999987
20
-15.925000000000086
10
-69.16249999999998
20
-15.925000000000097
42
-0.41421356237309509
10
-69.662499999999994
20
-15.42500000000009
10
-69.66249999999998
20
-3.6250000000000915
42
-0.41421356237309509
10
-69.16249999999998
20
-3.1250000000000933
10
-54.662499999999987
20
-3.1250000000000844
42
-0.41421356237309509
0
LWPOLYLINE
5
160
100
AcDbEntity
8
0
100
AcDbPolyline
90
8
70
1
43
0.0
10
-15.046249999999972
20
-24.200000000000092
10
-15.046249999999972
20
-19.990000000000098
42
0.41421356237309509
10
-15.546249999999979
20
-19.490000000000091
10
-17.21624999999996
20
-19.490000000000091
42
0.41421356237309509
10
-17.716250000000002
20
-19.990000000000098
10
-17.716249999999967
20
-24.200000000000092
42
0.41421356237309509
10
-17.21624999999996
20
-24.700000000000092
10
-15.546249999999979
20
-24.700000000000092
42
0.41421356237309509
0
LWPOLYLINE
5
161
100
AcDbEntity
8
0
100
AcDbPolyline
90
8
70
1
43
0.0
10
-41.087500000000006
20
15.424999999999912
10
-41.087500000000006
20
3.6249999999999094
42
0.41421356237309509
10
-40.587499999999999
20
3.1249999999999067
10
-26.087500000000006
20
3.1249999999999067
42
0.41421356237309509
10
-25.587499999999999
20
3.6249999999999094
10
-25.587499999999999
20
15.424999999999912
42
0.41421356237309509
10
-26.087500000000006
20
15.924999999999908
10
-40.587499999999999
20
15.924999999999908
42
0.41421356237309509
0
LWPOLYLINE
5
162
100
AcDbEntity
8
0
100
AcDbPolyline
90
8
70
1
43
0.0
10
-85.118750000000006
20
15.424999999999912
10
-85.118750000000006
20
3.6249999999999094
42
-0.41421356237309509
10
-85.618750000000006
20
3.1249999999999067
10
-100.11875000000001
20
3.1249999999999023
42
-0.41421356237309509
10
-100.61875000000001
20
3.6249999999999094
10
-100.61875000000001
20
15.424999999999912
42
-0.41421356237309509
10
-100.11875000000001
20
15.924999999999908
10
-85.618750000000006
20
15.924999999999919
42
-0.41421356237309509
0
LWPOLYLINE
5
163
100
AcDbEntity
8
0
100
AcDbPolyline
90
8
70
1
43
0.0
10
-6.5374999999999872
20
15.424999999999912
42
0.41421356237309509
10
-7.0374999999999943
20
15.924999999999908
10
-21.537499999999987
20
15.924999999999908
42
0.41421356237309509
10
-22.037499999999994
20
15.424999999999912
10
-22.037499999999994
20
3.6249999999999094
42
0.41421356237309509
10
-21.537499999999987
20
3.1249999999999112
10
-7.0374999999999943
20
3.1249999999999112
42
0.41421356237309509
10
-6.5374999999999872
20
3.6249999999999094
0
LWPOLYLINE
5
164
100
AcDbEntity
8
0
100
AcDbPolyline
90
8
70
1
43
0.0
10
-2.9874999999999829
20
15.424999999999912
10
-2.9874999999999829
20
3.6249999999999094
42
0.41421356237309509
10
-2.4875000000000114
20
3.1249999999999067
10
12.012500000000017
20
3.1249999999999067
42
0.41421356237309509
10
12.512500000000024
20
3.6249999999999094
10
12.512499999999989
20
15.424999999999912
42
0.41421356237309509
10
12.012500000000017
20
15.924999999999908
10
-2.4875000000000114
20
15.924999999999908
42
0.41421356237309509
0
LWPOLYLINE
5
165
100
AcDbEntity
8
0
100
AcDbPolyline
90
8
70
1
43
0.0
10
-83.449999999999989
20
34.974999999999909
42
0.41421356237309509
10
-83.949999999999989
20
34.474999999999909
10
-83.949999999999989
20
22.674999999999912
42
0.41421356237309509
10
-83.449999999999989
20
22.174999999999908
10
-68.949999999999989
20
22.174999999999908
42
0.41421356237309509
10
-68.449999999999989
20
22.674999999999912
10
-68.449999999999989
20
34.474999999999909
42
0.41421356237309509
10
-68.949999999999989
20
34.974999999999909
0
LWPOLYLINE
5
166
100
AcDbEntity
8
0
100
AcDbPolyline
90
8
70
1
43
0.0
10
27.96875
20
-22.675000000000093
10
27.96875
20
-34.475000000000094
42
0.41421356237309509
10
28.468750000000043
20
-34.975000000000101
10
42.968750000000071
20
-34.975000000000101
42
0.4142135623730534
10
43.468750000000043
20
-34.475000000000094
10
43.468749999999972
20
-22.675000000000093
42
0.4142135623730534
10
42.968750000000071
20
-22.175000000000086
10
28.468750000000043
20
-22.175000000000097
42
0.41421356237309509
0
LWPOLYLINE
5
167
100
AcDbEntity
8
0
100
AcDbPolyline
90
8
70
1
43
0.0
10
-32.731250000000003
20
-22.675000000000093
10
-32.731249999999967
20
-34.475000000000094
42
-0.41421356237311585
10
-33.23125000000001
20
-34.975000000000101
10
-47.731250000000003
20
-34.975000000000065
42
-0.41421356237309509
10
-48.231249999999974
20
-34.475000000000094
10
-48.23125000000001
20
-22.675000000000093
42
-0.41421356237309509
10
-47.731250000000003
20
-22.175000000000086
10
-33.23125000000001
20
-22.175000000000122
42
-0.41421356237311585
0
LWPOLYLINE
5
168
100
AcDbEntity
8
0
100
AcDbPolyline
90
8
70
1
43
0.0
10
63.687499999999986
20
-3.6250000000000915
10
63.687499999999986
20
-15.42500000000009
42
0.41421356237309509
10
64.187500000000028
20
-15.925000000000086
10
78.687499999999986
20
-15.925000000000086
42
0.41421356237309509
10
79.187500000000028
20
-15.42500000000009
10
79.187500000000028
20
-3.6250000000000915
42
0.41421356237309509
10
78.687499999999986
20
-3.1250000000000933
10
64.187500000000028
20
-3.1250000000000933
42
0.41421356237309509
0
LWPOLYLINE
5
169
100
AcDbEntity
8
0
100
AcDbPolyline
90
8
70
1
43
0.0
10
35.612500000000011
20
15.924999999999908
10
50.112499999999969
20
15.924999999999955
42
-0.41421356237309509
10
50.612500000000011
20
15.424999999999912
10
50.612499999999976
20
3.6249999999999094
42
-0.41421356237309509
10
50.112499999999969
20
3.1249999999999067
10
35.612500000000011
20
3.1249999999998668
42
-0.41421356237309509
10
35.112499999999969
20
3.6249999999999094
10
35.112500000000011
20
15.424999999999912
42
-0.41421356237309509
0
LWPOLYLINE
5
170
100
AcDbEntity
8
0
100
AcDbPolyline
90
8
70
1
43
0.0
10
64.90000000000002
20
34.474999999999909
10
64.900000000000063
20
22.674999999999912
42
-0.41421356237309509
10
64.400000000000048
20
22.174999999999908
10
49.90000000000002
20
22.17499999999994
42
-0.41421356237309509
10
49.400000000000048
20
22.674999999999912
10
49.400000000000013
20
34.474999999999909
42
-0.41421356237309509
10
49.90000000000002
20
34.974999999999909
10
64.400000000000048
20
34.974999999999881
42
-0.41421356237309509
0
LWPOLYLINE
5
171
100
AcDbEntity
8
0
100
AcDbPolyline
90
8
70
1
43
0.0
10
12.953749999999999
20
-24.200000000000092
10
12.953749999999999
20
-19.990000000000098
42
0.41421356237309509
10
12.453750000000028
20
-19.490000000000091
10
10.783750000000012
20
-19.490000000000091
42
0.41421356237309509
10
10.28375000000004
20
-19.990000000000098
10
10.283750000000005
20
-24.200000000000092
42
0.41421356237309509
10
10.783750000000012
20
-24.700000000000092
10
12.453750000000028
20
-24.700000000000092
42
0.41421356237309509
0
LWPOLYLINE
5
172
100
AcDbEntity
8
0
100
AcDbPolyline
90
8
70
1
43
0.0
10
-79.1875
20
3.6249999999999094
42
0.41421356237309509
10
-78.687499999999986
20
3.1249999999999112
10
-64.1875
20
3.1249999999999112
42
0.41421356237309509
10
-63.687499999999986
20
3.6249999999999094
10
-63.687499999999986
20
15.424999999999912
42
0.41421356237309509
10
-64.1875
20
15.924999999999908
10
-78.687499999999986
20
15.924999999999908
42
0.41421356237309509
10
-79.1875
20
15.424999999999912
0
LWPOLYLINE
5
173
100
AcDbEntity
8
0
100
AcDbPolyline
90
8
70
1
43
0.0
10
87.500000000000071
20
22.674999999999912
42
0.41421356237309509
10
88.000000000000043
20
22.174999999999908
10
102.50000000000007
20
22.174999999999908
42
0.41421356237309509
10
103.00000000000004
20
22.674999999999912
10
103.00000000000004
20
34.474999999999909
42
0.41421356237309509
10
102.50000000000007
20
34.974999999999909
10
88.000000000000043
20
34.974999999999909
42
0.41421356237309509
10
87.500000000000071
20
34.474999999999909
0
LWPOLYLINE
5
174
100
AcDbEntity
8
0
100
AcDbPolyline
90
8
70
1
43
0.0
10
100.61875000000008
20
-3.6250000000000915
10
100.61875000000003
20
-15.42500000000009
42
-0.4142135623730534
10
100.11875000000011
20
-15.925000000000086
10
85.618750000000077
20
-15.925000000000132
42
-0.41421356237309509
10
85.118750000000034
20
-15.42500000000009
10
85.118750000000063
20
-3.6250000000000915
42
-0.41421356237309509
10
85.618750000000077
20
-3.1250000000000933
10
100.11875000000003
20
-3.1250000000000488
42
-0.41421356237309509
0
ARC
5
175
100
AcDbEntity
8
0
100
AcDbCircle
10
-102.52499999999998
20
35.849999999999909
30
0
40
2.2500000000000142
210
0
220
-0
230
1
100
AcDbArc
50
90
51
180
0
ARC
5
176
100
AcDbEntity
8
0
100
AcDbCircle
10
-102.52500000000001
20
-35.850000000000108
30
0
40
2.2499999999999787
210
0
220
0
230
1
100
AcDbArc
50
180
51
270.00000000000074
0
ARC
5
177
100
AcDbEntity
8
0
100
AcDbCircle
10
102.52500000000005
20
-35.850000000000136
30
0
40
2.2499999999999609
210
0
220
0
230
1
100
AcDbArc
50
-90.000000000001833
51
0
0
ARC
5
178
100
AcDbEntity
8
0
100
AcDbCircle
10
102.52499999999984
20
35.84999999999981
30
0
40
2.2500000000000853
210
0
220
-0
230
1
100
AcDbArc
50
0
51
89.99999999999639
0
LINE
5
179
100
AcDbEntity
8
0
100
AcDbLine
10
-75.225000000000009
20
38.099999999999923
30
0
11
75.224999999999937
21
38.099999999999909
31
0
0
ARC
5
180
100
AcDbEntity
8
0
100
AcDbCircle
10
-102.52500000000001
20
-35.850000000000115
30
-2.2204460492503131e-15
40
2.2499999999999964
210
0
220
0
230
1
100
AcDbArc
50
180
51
270.00000000000034
0
LINE
5
181
100
AcDbEntity
8
0
100
AcDbLine
10
-103
20
28.57499999999991
30
0
11
-87.5
21
28.57499999999991
31
0
0
LINE
5
182
100
AcDbEntity
8
0
100
AcDbLine
10
-95.25
20
28.57499999999991
30
0
11
-95.25
21
22.174999999999908
31
0
0
ENDSEC
0
SECTION
2
OBJECTS
0
DICTIONARY
5
C
100
AcDbDictionary
3
ACAD_GROUP
350
D
3
ACAD_MLINESTYLE
350
17
0
DICTIONARY
5
D
100
AcDbDictionary
0
DICTIONARY
5
1A
330
C
100
AcDbDictionary
0
DICTIONARY
5
17
100
AcDbDictionary
0
ENDSEC
0
EOF
